<?xml version="1.0" encoding="UTF-8"?>
<svg xmlns="http://www.w3.org/2000/svg" width="300px" height="180px" viewBox="0 0 300 180" version="1.1">
<g id="surface1" stroke="none" fill="#000000" transform="translate(0,0) scale(1,1)">
<path style=" stroke:none;fill-rule:nonzero;fill:rgb(0%,0%,0%);fill-opacity:1;" d="M 118.230469 26.703125 C 85.519531 31.796875 56.199219 49.457031 30.265625 79.515625 C 26.027344 84.4375 22.46875 89.871094 22.46875 91.738281 C 22.46875 95.984375 49.25 124.175781 62.46875 133.515625 C 74.84375 142.34375 90.773438 149.816406 105.011719 153.550781 C 118.0625 156.949219 143.65625 156.949219 158.0625 153.550781 C 183.65625 147.609375 209.757812 129.269531 217.554688 111.777344 C 223.316406 98.53125 223.148438 82.0625 217.046875 69.664062 C 205.519531 46.0625 173.148438 28.402344 138.230469 26.53125 C 130.097656 26.191406 121.113281 26.191406 118.230469 26.703125 Z M 156.027344 39.949219 C 169.078125 43.003906 187.046875 52.003906 196.535156 60.15625 C 215.351562 76.457031 216.199219 103.117188 198.402344 120.097656 C 189.925781 128.25 173.824219 137.25 160.605469 141.496094 C 142.128906 147.269531 117.722656 146.589844 98.570312 139.796875 C 80.097656 133.34375 64.332031 122.816406 47.214844 105.496094 L 33.824219 91.910156 L 40.945312 83.417969 C 56.875 64.402344 85.351562 45.890625 107.214844 40.117188 C 119.417969 36.890625 142.636719 36.890625 156.027344 39.949219 Z M 156.027344 39.949219 "/>
<path style=" stroke:none;fill-rule:nonzero;fill:rgb(0%,0%,0%);fill-opacity:1;" d="M 116.535156 54.890625 C 98.742188 63.042969 89.25 81.722656 93.65625 100.0625 C 99.757812 125.363281 126.875 138.097656 149.585938 126.042969 C 176.535156 111.949219 178.402344 76.457031 153.316406 58.796875 C 147.046875 54.382812 144.164062 53.53125 133.824219 53.191406 C 126.199219 52.851562 119.757812 53.53125 116.535156 54.890625 Z M 150.773438 65.078125 C 163.316406 73.738281 167.894531 94.117188 160.433594 107.191406 C 155.6875 115.34375 142.300781 124.003906 134.503906 124.003906 C 124.164062 124.003906 115.179688 120.4375 108.742188 113.984375 C 93.824219 99.210938 97.046875 74.589844 115.179688 63.210938 C 124.503906 57.609375 141.28125 58.457031 150.773438 65.078125 Z M 150.773438 65.078125 "/>
<path style=" stroke:none;fill-rule:nonzero;fill:rgb(0%,0%,0%);fill-opacity:1;" d="M 122.976562 72.382812 C 106.707031 80.53125 106.875 103.289062 123.316406 111.097656 C 136.707031 117.550781 151.792969 108.210938 152.976562 92.589844 C 153.65625 84.949219 150.433594 78.835938 143.316406 74.078125 C 136.027344 68.984375 130.773438 68.644531 122.976562 72.382812 Z M 143.148438 81.550781 C 147.554688 86.136719 148.230469 87.664062 147.382812 93.097656 C 144.84375 108.722656 125.351562 112.289062 118.0625 98.363281 C 109.925781 82.402344 130.433594 68.816406 143.148438 81.550781 Z M 143.148438 81.550781 "/>
<path style=" stroke:none;fill-rule:nonzero;fill:rgb(0%,0%,0%);fill-opacity:1;" d="M 231.453125 26.703125 C 227.554688 28.230469 229.078125 33.835938 236.027344 42.835938 C 256.875 70.34375 256.875 111.4375 236.027344 138.949219 C 228.742188 148.457031 227.554688 153.550781 231.960938 155.25 C 235.519531 156.609375 244.164062 147.609375 251.113281 135.210938 C 267.722656 106.175781 266.199219 67.964844 247.214844 40.289062 C 239.925781 29.589844 234.84375 25.34375 231.453125 26.703125 Z M 231.453125 26.703125 "/>
<path style=" stroke:none;fill-rule:nonzero;fill:rgb(0%,0%,0%);fill-opacity:1;" d="M 215.011719 45.210938 C 214.332031 46.910156 215.859375 50.476562 218.910156 54.042969 C 225.859375 63.210938 228.742188 69.324219 230.773438 80.703125 C 233.824219 97.515625 229.078125 115.851562 218.230469 128.757812 C 213.316406 134.703125 214.164062 139.289062 220.097656 139.289062 C 224.671875 139.289062 232.976562 128.25 238.230469 114.835938 C 242.808594 103.628906 242.976562 79.175781 238.742188 67.964844 C 234.164062 55.738281 224.332031 42.496094 219.925781 42.496094 C 217.722656 42.496094 215.519531 43.683594 215.011719 45.210938 Z M 215.011719 45.210938 "/>
</g>
</svg>
